<?xml version="1.0" encoding="UTF-8" standalone="no"?>
<!-- Created with Inkscape (http://www.inkscape.org/) -->

<svg
   width="36.905998mm"
   height="7.809mm"
   viewBox="0 0 36.908573 7.8095448"
   version="1.1"
   id="svg537"
   xmlns="http://www.w3.org/2000/svg"
   xmlns:svg="http://www.w3.org/2000/svg">
  <defs
     id="defs534" />
  <g
     id="layer1"
     transform="translate(-24.334919,-188.08938)">
    <path
       d="m 25.654708,194.61988 c 0.986369,0.34269 1.724994,0.57421 2.215856,0.69462 0.495507,0.12503 0.919228,0.18755 1.271165,0.18755 0.356581,0 0.747872,-0.081 1.173917,-0.24312 l 0.03473,0.0556 c -0.564969,0.38899 -1.134562,0.58349 -1.708779,0.58349 -0.588109,0 -1.257272,-0.18293 -2.007468,-0.54876 -0.578862,-0.28712 -0.937744,-0.46077 -1.076669,-0.52097 -0.495501,-0.22228 -0.903013,-0.33574 -1.222541,-0.34036 v -0.0695 h 0.0903 c 0.120403,0 0.22228,-0.0417 0.305635,-0.12503 0.08799,-0.0833 0.134295,-0.18755 0.138925,-0.31258 v -3.84822 c -0.0046,-0.12041 -0.05094,-0.22228 -0.138925,-0.30564 -0.08336,-0.088 -0.185232,-0.13198 -0.305635,-0.13198 h -0.0903 v -0.0695 h 1.52123 v 0.0695 h -0.0903 c -0.120409,0 -0.224596,0.044 -0.312581,0.13198 -0.08798,0.0834 -0.131979,0.18523 -0.131979,0.30564 v 4.00798 c 0,0.0834 0.0046,0.1482 0.01389,0.1945 0.0093,0.0417 0.03936,0.0903 0.0903,0.14587 0.05094,0.0556 0.127349,0.10187 0.229226,0.13893 z m 1.558523,-0.20145 c 0.120387,0 0.22228,-0.0417 0.305635,-0.12503 0.08798,-0.088 0.13428,-0.19217 0.138925,-0.31258 v -3.85517 c -0.0046,-0.1204 -0.05095,-0.22228 -0.138925,-0.30564 -0.08335,-0.0833 -0.185248,-0.12503 -0.305635,-0.12503 h -0.0903 v -0.0695 h 1.52123 v 0.0695 h -0.0903 c -0.120409,0 -0.224603,0.0417 -0.312581,0.12503 -0.08336,0.0834 -0.127356,0.18524 -0.131979,0.30564 v 3.85517 c 0,0.12041 0.04398,0.2246 0.131979,0.31258 0.08798,0.0834 0.192172,0.12503 0.312581,0.12503 h 0.0903 v 0.0695 h -1.52123 v -0.0695 z m 7.244185,-4.72345 c -0.115786,0 -0.215334,0.0417 -0.298689,0.12503 -0.08335,0.0787 -0.127356,0.17598 -0.131979,0.29175 v 3.58426 c 0,0.26859 0.01619,0.5233 0.04862,0.76409 l 0.01389,0.12503 h -0.06252 l -3.785709,-4.04272 v 3.45924 c 0,0.11576 0.04168,0.21533 0.125032,0.29869 0.08335,0.0787 0.182904,0.11808 0.298689,0.11808 h 0.131979 v 0.0695 l -1.430919,-9e-5 v -0.0694 h 0.131979 c 0.115764,0 0.215334,-0.0393 0.298689,-0.11808 0.08336,-0.0834 0.125033,-0.18523 0.125033,-0.30564 v -3.6051 c 0,-0.28248 -0.01621,-0.53487 -0.04862,-0.75715 l -0.01389,-0.11114 h 0.06946 l 3.785709,4.04273 v -3.44535 c -0.0046,-0.1204 -0.04862,-0.21996 -0.131979,-0.29869 -0.08335,-0.0833 -0.182925,-0.12503 -0.298689,-0.12503 H 33.15152 v -0.0695 h 1.430928 v 0.0695 z m 2.216224,4.72345 h 0.0903 v 0.0695 h -1.52123 v -0.0695 h 0.0903 c 0.120409,0 0.22228,-0.0417 0.305635,-0.12503 0.08798,-0.088 0.134301,-0.19217 0.138925,-0.31258 v -3.85517 c -0.0046,-0.1204 -0.05095,-0.22228 -0.138925,-0.30564 -0.08336,-0.0833 -0.185226,-0.12503 -0.305635,-0.12503 h -0.0903 v -0.0695 h 1.52123 v 0.0695 h -0.0903 c -0.120409,0 -0.224603,0.0417 -0.312581,0.12503 -0.08336,0.0834 -0.127356,0.18524 -0.131979,0.30564 v 3.85517 c 0,0.12041 0.044,0.2246 0.131979,0.31258 0.08798,0.0834 0.192172,0.12503 0.312581,0.12503 z m 2.792395,0.0695 h -0.298689 c -0.472346,0 -0.819658,-0.13198 -1.041939,-0.39594 l -1.674047,-2.02136 1.639316,-2.05609 c 0.03705,-0.0463 0.05557,-0.088 0.05557,-0.12503 0,-0.037 -0.0069,-0.0695 -0.02084,-0.0972 -0.03705,-0.0695 -0.104193,-0.1042 -0.201441,-0.1042 h -0.06946 v -0.0625 h 1.46566 v 0.0625 h -0.02779 c -0.305635,0 -0.5557,0.10883 -0.750195,0.32648 l -1.63237,1.88938 1.896327,2.22975 c 0.185227,0.18522 0.405206,0.28017 0.659895,0.28479 z m 0.432252,-0.0695 c 0.120387,0 0.22228,-0.0417 0.305635,-0.12503 0.08798,-0.088 0.13428,-0.19217 0.138925,-0.31258 v -3.8899 c 0,-0.11114 -0.044,-0.20376 -0.131978,-0.27785 -0.088,-0.0787 -0.192195,-0.11809 -0.312582,-0.11809 h -0.08336 l -0.0069,-0.0695 h 2.035253 c 0.143548,0 0.298689,-0.0139 0.465399,-0.0417 0.171333,-0.0278 0.291742,-0.0556 0.361205,-0.0833 v 0.87522 h -0.06946 v -0.12503 c 0,-0.11114 -0.03938,-0.20607 -0.118086,-0.28479 -0.07411,-0.0787 -0.164409,-0.12041 -0.270904,-0.12504 h -1.417036 v 2.1464 h 1.173917 c 0.0926,-0.005 0.171334,-0.0394 0.236173,-0.1042 0.06482,-0.0648 0.09725,-0.14587 0.09725,-0.24312 v -0.0972 h 0.06946 v 1.0975 h -0.06946 v -0.10419 c 0,-0.0926 -0.03243,-0.17133 -0.09725,-0.23617 -0.06021,-0.0648 -0.136624,-0.0996 -0.229227,-0.1042 h -1.180863 v 2.07693 h 0.993315 c 0.342667,0 0.604324,-0.0764 0.784926,-0.22922 0.180603,-0.15282 0.331098,-0.37972 0.451507,-0.68074 h 0.06946 l -0.402883,1.1253 h -2.882696 v -0.0695 z m 6.205654,-4.79291 c 0.740862,0 1.340628,0.22459 1.799081,0.67379 0.463011,0.44456 0.694625,1.03036 0.694625,1.7574 0,0.72703 -0.231614,1.31516 -0.694625,1.76435 -0.458453,0.44456 -1.058219,0.66684 -1.799081,0.66684 h -2.35478 v -0.0695 h 0.0903 c 0.120409,0 0.22228,-0.0417 0.305635,-0.12503 0.08798,-0.088 0.134302,-0.19217 0.138926,-0.31258 v -3.8899 c 0,-0.11114 -0.0463,-0.20376 -0.138926,-0.27785 -0.08798,-0.0787 -0.189871,-0.11809 -0.305635,-0.11809 h -0.08335 l -0.0069,-0.0695 z m -1.368412,0.20839 v 4.4456 h 1.368412 c 0.388991,0 0.731745,-0.0926 1.028046,-0.27785 0.301077,-0.18523 0.532474,-0.44456 0.694626,-0.77798 0.16671,-0.33804 0.250065,-0.72704 0.250065,-1.16697 0,-0.66684 -0.18299,-1.20402 -0.548754,-1.61153 -0.361206,-0.40752 -0.835939,-0.61127 -1.423983,-0.61127 z m 5.912132,4.58452 h 0.0903 v 0.0695 h -1.52123 v -0.0695 h 0.0903 c 0.120257,0 0.222281,-0.0417 0.305636,-0.12503 0.08791,-0.088 0.134149,-0.19217 0.138925,-0.31258 v -3.85517 c -0.0048,-0.1204 -0.05101,-0.22228 -0.138925,-0.30564 -0.08335,-0.0833 -0.185379,-0.12503 -0.305636,-0.12503 h -0.0903 v -0.0695 h 1.52123 v 0.0695 h -0.0903 c -0.120474,0 -0.224668,0.0417 -0.312582,0.12503 -0.08335,0.0834 -0.12742,0.18524 -0.131979,0.30564 v 3.85517 c 0,0.12041 0.04385,0.2246 0.131979,0.31258 0.08791,0.0834 0.192108,0.12503 0.312582,0.12503 z m 2.792394,0.0695 h -0.298689 c -0.472345,0 -0.819658,-0.13198 -1.041938,-0.39594 l -1.674047,-2.02136 1.639316,-2.05609 c 0.0369,-0.0463 0.05557,-0.088 0.05557,-0.12503 0,-0.037 -0.0069,-0.0695 -0.02084,-0.0972 -0.03712,-0.0695 -0.104194,-0.1042 -0.201441,-0.1042 h -0.06946 v -0.0625 h 1.46566 v 0.0625 h -0.02779 c -0.305635,0 -0.5557,0.10883 -0.750196,0.32648 l -1.63237,1.88938 1.896328,2.22975 c 0.185161,0.18522 0.405054,0.28017 0.659894,0.28479 z m 0.432188,-0.0695 c 0.120257,0 0.22228,-0.0417 0.305635,-0.12503 0.08791,-0.088 0.134149,-0.19217 0.138925,-0.31258 v -3.85517 c -0.0048,-0.1204 -0.05101,-0.22228 -0.138925,-0.30564 -0.08335,-0.0833 -0.185378,-0.12503 -0.305635,-0.12503 h -0.0903 v -0.0695 h 1.52123 v 0.0695 h -0.0903 c -0.120474,0 -0.224668,0.0417 -0.312582,0.12503 -0.08336,0.0834 -0.12742,0.18524 -0.131978,0.30564 v 3.85517 c 0,0.12041 0.04385,0.2246 0.131978,0.31258 0.08791,0.0834 0.192108,0.12503 0.312582,0.12503 h 0.0903 v 0.0695 h -1.52123 v -0.0695 z m 7.244076,-4.72345 c -0.115699,0 -0.215334,0.0417 -0.298689,0.12503 -0.08336,0.0787 -0.127204,0.17598 -0.131979,0.29175 v 3.58426 c 0,0.26859 0.01628,0.5233 0.04862,0.76409 l 0.01389,0.12503 h -0.06252 l -3.785709,-4.04272 v 3.45924 c 0,0.11576 0.04168,0.21533 0.125032,0.29869 0.08335,0.0787 0.182991,0.11808 0.298689,0.11808 h 0.131979 v 0.0695 h -1.430928 v -0.0695 h 0.131978 c 0.115916,0 0.215334,-0.0393 0.298689,-0.11808 0.08335,-0.0834 0.125033,-0.18523 0.125033,-0.30564 v -3.6051 c 0,-0.28248 -0.01606,-0.53487 -0.04862,-0.75715 l -0.01389,-0.11114 h 0.06946 l 3.785709,4.04273 v -3.44535 c -0.0046,-0.1204 -0.04862,-0.21996 -0.131978,-0.29869 -0.08335,-0.0833 -0.182774,-0.12503 -0.298689,-0.12503 h -0.131979 v -0.0695 h 1.430928 v 0.0695 z"
       fill="#805252"
       id="path117"
       style="mix-blend-mode:multiply;stroke-width:0.21707" />
  </g>
</svg>
