<svg width="38" height="31" viewBox="0 0 38 31" fill="none" xmlns="http://www.w3.org/2000/svg">
<path d="M26.4061 27.448C28.6248 27.448 30.4168 27.0107 31.7821 26.136L32.0061 26.392C30.1715 28.9307 27.8888 30.3387 25.1581 30.616C24.5821 30.68 24.0808 30.712 23.6541 30.712C23.2488 30.712 22.7688 30.6907 22.2141 30.648C21.6808 30.6267 20.9235 30.488 19.9421 30.232C18.9608 29.976 18.0968 29.7093 17.3501 29.432C16.6035 29.176 15.7395 28.824 14.7581 28.376C13.7768 27.9493 12.9661 27.5653 12.3261 27.224C11.6861 26.904 10.9181 26.5093 10.0221 26.04C9.14746 25.592 8.37946 25.208 7.71813 24.888C7.05679 24.568 6.41679 24.2907 5.79813 24.056C4.04879 23.352 2.25679 23 0.422125 23V22.68H0.838125C1.39279 22.68 1.86213 22.488 2.24613 22.104C2.65146 21.72 2.86479 21.24 2.88613 20.664V2.936C2.86479 2.36 2.65146 1.88 2.24613 1.496C1.86213 1.112 1.39279 0.919998 0.838125 0.919998H0.422125V0.599998H10.1501L10.1181 0.919998H9.79813C8.98746 0.919998 8.37946 1.25067 7.97413 1.912C7.78213 2.21067 7.68613 2.552 7.68613 2.936V21.496C7.68613 22.2 7.82479 22.6907 8.10213 22.968C8.37946 23.224 8.68879 23.4053 9.03013 23.512C17.0515 26.136 22.8435 27.448 26.4061 27.448ZM14.4944 22.68C15.049 22.68 15.5184 22.488 15.9024 22.104C16.3077 21.6987 16.521 21.2187 16.5424 20.664V2.904C16.521 2.136 16.169 1.56 15.4864 1.176C15.1877 1.00533 14.857 0.919998 14.4944 0.919998H14.0784V0.599998H23.8064L23.7744 0.919998H23.3904C22.6224 0.919998 22.0357 1.25067 21.6304 1.912C21.4384 2.21067 21.3424 2.54133 21.3424 2.904V20.664C21.3424 21.2187 21.545 21.6987 21.9504 22.104C22.3557 22.488 22.8357 22.68 23.3904 22.68H23.7744L23.8064 23H14.0784V22.68H14.4944ZM37.5984 23H34.9744C31.7317 23 29.4384 22.1147 28.0944 20.344C24.2757 15.16 22.3664 12.5253 22.3664 12.44L29.9504 2.392C30.121 2.17867 30.2064 1.98667 30.2064 1.816C30.2064 1.64533 30.1744 1.496 30.1104 1.368C29.9397 1.048 29.641 0.887999 29.2144 0.887999H28.8944V0.599998H36.2224V0.887999H36.0944C34.665 0.887999 33.5024 1.4 32.6064 2.424L26.3664 9.816L34.3344 20.696C35.3157 21.976 36.4037 22.6373 37.5984 22.68V23Z" fill="#3B231F"/>
</svg>